<svg width="1024" height="1024" viewBox="0 0 1024 1024" fill="none" xmlns="http://www.w3.org/2000/svg">
<g clip-path="url(#clip0_1_5290)">
<rect width="1024" height="1024" fill="#1A1B22"/>
<path fill-rule="evenodd" clip-rule="evenodd" d="M980.6 856.528L565.079 1093.87C482.511 1140.49 419.245 1108.7 419.245 1011.75V912.155L335.069 960.365C252.501 1007.52 189.771 975.729 189.771 878.779V795.074L117.39 836.396C34.8218 883.547 -28.4445 851.76 -28.4445 754.81V280.127C-28.4445 218.142 -9.67903 185.826 44.4726 155.098L468.035 -87.0114C528.621 -121.447 604.219 -98.6666 604.219 -12.8421V83.578L685.714 36.9573C746.3 2.52156 822.434 25.8319 822.434 111.656V223.44L915.725 170.462C976.31 136.026 1052.44 158.807 1052.44 244.631V732.559C1052.44 793.484 1036.9 824.211 980.6 856.528Z" fill="#3772E7"/>
<path fill-rule="evenodd" clip-rule="evenodd" d="M386.558 295.822V354.758H651.767V295.822H386.558ZM312.889 384.225H371.824V723.103H312.889V384.225ZM666.5 384.225H725.436V721.773H666.5V384.225Z" fill="white"/>
</g>
<defs>
<clipPath id="clip0_1_5290">
<rect width="1024" height="1024" fill="white"/>
</clipPath>
</defs>
</svg>
